<svg width="135" height="12" viewBox="0 0 135 12" fill="none" xmlns="http://www.w3.org/2000/svg">
<path d="M1.87308 6.96591H4.16368L3.50114 10.1046C3.23855 11.3594 2.74838 11.9867 2.03063 11.9867H0.986328L1.87308 6.96591ZM1.81753 3.07824H1.11055L2.49118 0.0126953H4.79188L3.6587 2.59342H4.15257L3.63547 6.70978H1.68219C1.64348 6.71076 1.60509 6.70157 1.57004 6.68292C1.53499 6.66427 1.50424 6.63667 1.4802 6.6023C1.45471 6.56826 1.43557 6.52872 1.42394 6.48608C1.41231 6.44343 1.40843 6.39856 1.41253 6.35417L1.81753 3.07824ZM5.40997 3.36867C5.43139 3.30136 5.47051 3.24309 5.52208 3.20173C5.57091 3.16088 5.63003 3.13884 5.69074 3.13884H7.5511L7.12792 4.63902C6.94791 5.23681 6.61107 5.75818 6.1624 6.13349C5.73384 6.50543 5.20865 6.70644 4.66866 6.70521H4.45556L5.40997 3.36867ZM11.2819 10.817C11.4186 11.0026 11.4939 11.2363 11.495 11.4779L11.5172 11.9867H5.47663C5.322 11.9847 5.17003 11.9408 5.03336 11.8589C4.8967 11.777 4.77928 11.6593 4.69088 11.5156C4.51919 11.2702 4.46263 10.8383 4.52121 10.2201L4.84641 6.96591H7.19458L6.88048 10.1184C6.87151 10.2279 6.89118 10.3381 6.93704 10.4351C6.95504 10.4746 6.98248 10.5075 7.01624 10.5302C7.04999 10.5528 7.0887 10.5642 7.12792 10.5631H10.7426C10.8438 10.5542 10.9455 10.5725 11.0392 10.6167C11.133 10.6608 11.2161 10.7294 11.2819 10.817ZM6.07251 0.0126953H8.42977L8.18233 0.584412H14.9642C14.9994 0.581624 15.0345 0.589604 15.066 0.607512C15.0974 0.62542 15.124 0.652594 15.143 0.686177C15.1614 0.720246 15.1722 0.758926 15.1743 0.798806C15.1764 0.838687 15.1698 0.878544 15.1551 0.914864L14.4482 2.77066H12.3141L12.7302 1.65238H7.69957C7.30366 2.3979 6.79497 2.77066 6.17351 2.77066H4.87065L6.07251 0.0126953ZM10.7537 5.15814C10.7286 5.38643 10.6637 5.6068 10.5628 5.80647C10.4673 5.98865 10.3458 6.15169 10.2033 6.289C10.0641 6.4226 9.90412 6.52573 9.73161 6.59315C9.56386 6.6687 9.38496 6.70751 9.20441 6.70749H7.34103L7.41981 6.08547C7.43626 5.96002 7.49146 5.84524 7.57559 5.76151C7.65972 5.67777 7.76734 5.6305 7.87934 5.62809H8.00356C8.2803 5.62809 8.43718 5.47106 8.47421 5.157L8.80043 2.58999C8.8065 2.50849 8.84059 2.43294 8.89536 2.3796C8.95112 2.3243 9.02326 2.2949 9.09736 2.29727H11.1072L10.7537 5.15814ZM10.6194 9.90225H8.47421V6.96591H10.0245C10.1042 6.96514 10.1829 6.98679 10.2534 7.02889C10.3239 7.071 10.384 7.13226 10.4285 7.20717C10.5453 7.39279 10.6082 7.615 10.6083 7.84292L10.6194 9.90225ZM13.9523 7.44844C14.1632 7.81408 14.269 8.24464 14.2552 8.68106L14.2664 11.9867H12.1454L12.1333 6.96591H13.1776C13.3321 6.96748 13.4838 7.01238 13.6191 7.09659C13.7545 7.18079 13.8693 7.30169 13.9533 7.44844H13.9523ZM12.2242 3.13998H13.0998C13.2605 3.13364 13.4206 3.16353 13.5709 3.22792C13.7213 3.29231 13.8588 3.3899 13.9755 3.51503C14.21 3.77007 14.3471 4.11894 14.3573 4.48695L14.4471 6.71092H12.6736C12.6343 6.71186 12.5953 6.70396 12.5587 6.68767C12.5221 6.67137 12.4887 6.64702 12.4605 6.61602C12.3998 6.55125 12.3635 6.46229 12.3595 6.36789L12.2242 3.13998Z" fill="#525671"/>
<path d="M18.2161 9.40018C18.2107 9.42671 18.2109 9.4543 18.2167 9.48071C18.2225 9.50713 18.2337 9.53163 18.2494 9.55226C18.2682 9.56924 18.29 9.58148 18.3134 9.58819C18.3367 9.59489 18.361 9.59589 18.3847 9.59114L19.1361 9.50195L20.2148 0.528285C20.2252 0.384522 20.2833 0.250553 20.3774 0.153239C20.4668 0.0575967 20.5856 0.00510751 20.7086 0.00687938H22.5155L21.0924 11.9935H18.8443L19.024 10.4681L17.1536 10.6968C17.0218 10.7237 16.8865 10.7183 16.7567 10.681C16.6269 10.6437 16.5057 10.5754 16.4011 10.4807C16.2143 10.3024 16.1426 10.0234 16.188 9.62887L17.2394 0.794705C17.2593 0.655383 17.3206 0.527915 17.4131 0.43338C17.4988 0.339021 17.6138 0.286472 17.7333 0.28702H19.2937L18.2161 9.40018ZM25.3787 9.59914L25.3343 9.66203C24.3304 11.2133 23.0767 11.9889 21.5732 11.9889H21.4964L24.2445 7.31227L22.5609 4.50629H24.6818C24.7539 4.50774 24.8243 4.53098 24.8857 4.5736C24.9472 4.61622 24.9974 4.67668 25.0313 4.7487L25.4807 5.66344L27.2199 2.38408C27.2736 2.28334 27.3493 2.19993 27.4396 2.14186C27.53 2.08379 27.6321 2.05301 27.736 2.05248H29.8246L26.6695 7.44262L28.9045 11.9935H28.848C27.4259 11.9935 26.2769 11.2137 25.4009 9.65402L25.3787 9.59914ZM25.6817 0.638054H30.2064C30.1692 0.918687 30.0484 1.17649 29.864 1.36871C29.6898 1.55516 29.4583 1.65767 29.2186 1.65457H25.3454L25.2777 1.84552C24.6421 3.31445 23.7103 4.04891 22.4821 4.04891L23.6052 0.362487C23.6951 0.125796 23.8365 0.00687938 24.0314 0.00687938H25.9069L25.6817 0.638054Z" fill="#525671"/>
<path d="M33.8754 10.6104L34.1905 7.99199H31.709L31.7878 7.29335C31.8062 7.16147 31.8635 7.04054 31.9504 6.95032C32.0306 6.86364 32.1375 6.81567 32.2483 6.81654H34.3248L34.4369 5.85148C34.4552 5.71025 34.5167 5.58076 34.6106 5.48558C34.6983 5.39562 34.8125 5.34588 34.9308 5.34609H36.7386L36.5659 6.82226H39.0404L38.9505 7.55977C38.9387 7.6782 38.8912 7.78842 38.8161 7.87193C38.7394 7.95015 38.6386 7.9912 38.5354 7.98627H36.4245L36.1327 10.5167L38.6576 10.4023L38.5677 11.1902C38.5486 11.3017 38.4995 11.404 38.4273 11.4829C38.3589 11.5575 38.2695 11.6024 38.1748 11.6098L31.2061 11.9277L31.2848 11.2165C31.3024 11.0808 31.3588 10.9555 31.4454 10.8597C31.5319 10.7668 31.6454 10.7128 31.7646 10.7076L33.8754 10.6104ZM37.0063 4.7252L32.8745 5.13226C32.75 5.14274 32.6253 5.11386 32.5144 5.04886C32.4035 4.98385 32.3107 4.88527 32.2463 4.76408C32.1833 4.63164 32.1492 4.48397 32.1471 4.33353C32.145 4.18309 32.1749 4.03429 32.2342 3.89964L33.3007 1.31892H32.4483L32.5382 0.658012C32.555 0.517088 32.6142 0.387037 32.7059 0.289826C32.7979 0.195115 32.9189 0.144674 33.0432 0.149184H39.8796L39.7786 0.925575C39.7678 1.03526 39.7222 1.13679 39.6504 1.21143C39.5813 1.28219 39.491 1.3206 39.3979 1.31892H35.6277L34.748 3.50516C34.7262 3.54998 34.7147 3.60033 34.7147 3.65152C34.7147 3.70271 34.7262 3.75306 34.748 3.79788C34.7699 3.83933 34.8015 3.87312 34.8393 3.89552C34.877 3.91792 34.9196 3.92805 34.9621 3.9248L36.9598 3.73385L36.8689 1.8529H38.2728C38.3844 1.8515 38.4952 1.87559 38.5984 1.92372C38.7017 1.97185 38.7953 2.04304 38.8737 2.13304C39.043 2.32227 39.1447 2.57547 39.1595 2.84426L39.2757 5.2569H37.0416L37.0063 4.7252ZM40.32 1.59791C40.3626 1.2204 40.5239 0.872907 40.7745 0.619135C41.0109 0.370657 41.3224 0.234017 41.6451 0.237228H42.4308L41.3532 9.28864C41.3224 9.55379 41.2114 9.79867 41.0391 9.98156C40.8726 10.1608 40.6507 10.259 40.421 10.2548H39.2979L40.32 1.59791ZM43.666 11.5755C43.4313 11.8338 43.1177 11.9796 42.7904 11.9826H39.6968L39.7191 11.8545C39.7434 11.6124 39.8451 11.3888 40.0049 11.2256C40.1535 11.0657 40.3503 10.9758 40.5553 10.9741H41.4542C41.5104 10.9755 41.5663 10.9639 41.6184 10.9399C41.6706 10.9159 41.7178 10.8801 41.7572 10.8346C41.8374 10.7463 41.8886 10.6298 41.9026 10.5041L43.059 0.704892C43.0901 0.51434 43.1748 0.340272 43.3004 0.208643C43.4214 0.0827994 43.5805 0.0144333 43.7448 0.0176893H45.3829L44.1407 10.5853C44.0905 10.9687 43.9224 11.3198 43.666 11.5767V11.5755Z" fill="#525671"/>
<path d="M57.3854 7.08675L46.3828 7.04902L46.5848 5.75237C46.6676 5.19285 46.9858 4.91309 47.5392 4.91309H58.4297L58.2832 6.10797C58.2307 6.76125 57.9314 7.08751 57.3854 7.08675Z" fill="#525671"/>
<path d="M61.3496 7.53177H63.617L62.6858 9.65398C61.9001 11.1786 60.8298 11.9408 59.4751 11.9408H59.4297L61.3496 7.53177ZM66.8954 11.5864C66.6524 11.8459 66.3315 11.9914 65.9975 11.9934H63.6625L63.7069 11.6241C63.7274 11.4475 63.8034 11.2851 63.921 11.1667C64.0315 11.0427 64.1805 10.9725 64.3361 10.9712H64.6391C64.7535 10.9704 64.8642 10.9257 64.9532 10.8443C65.0421 10.7619 65.0987 10.6432 65.1107 10.5138L65.5258 7.09498H60.1144L60.1821 6.53584C60.1951 6.41346 60.2467 6.30054 60.3275 6.21796C60.4069 6.13482 60.5114 6.08938 60.6194 6.09104H65.6491L65.7167 5.5319C65.7199 5.48657 65.731 5.4424 65.7494 5.40196C65.7677 5.36152 65.793 5.32562 65.8238 5.29636C65.8835 5.23436 65.9619 5.20043 66.0429 5.20145H68.0184L67.9174 6.09104H73.25L73.1945 6.54842C73.1751 6.70172 73.1073 6.84187 73.0036 6.9429C72.9044 7.04198 72.7764 7.09613 72.6441 7.09498H67.7962L67.369 10.5905C67.327 10.9779 67.1579 11.3333 66.8954 11.5864ZM61.585 0.266395C61.6131 0.190951 61.66 0.126325 61.7198 0.080281C61.7796 0.034237 61.8499 0.00873387 61.9223 0.00683594H63.9543L63.8079 0.362444H73.6995L73.5308 1.78602L69.4667 3.452L72.229 4.56799C72.3158 4.59994 72.4064 4.6169 72.4976 4.6183H73.5076L73.3723 5.67369H71.4533C71.1853 5.67735 70.9177 5.64744 70.6554 5.5845C70.4232 5.52504 70.1727 5.4572 69.904 5.38097L66.855 4.49367L63.7453 5.38326C63.4537 5.45949 63.1844 5.52733 62.9373 5.58679C62.6678 5.64881 62.3932 5.6787 62.1182 5.67598H60.1892L60.3124 4.67204H60.9638C61.0804 4.67365 61.1968 4.66524 61.3123 4.64689C61.3941 4.62973 61.488 4.60458 61.593 4.57028L64.4664 3.47715L62.9514 2.51095C62.8094 2.7991 62.6148 2.94317 62.3677 2.94317H60.5306L61.585 0.266395ZM64.2573 1.36638L67.064 3.00606L70.2525 1.36638H64.2573ZM69.4223 7.53062H71.7028L72.534 11.9408H72.2421C71.6858 11.9495 71.1454 11.7306 70.7201 11.3245C70.2835 10.9153 69.9779 10.3548 69.8505 9.72945L69.4223 7.53062Z" fill="#525671"/>
<path d="M76.8777 11.623C76.572 11.866 76.2069 11.9951 75.8334 11.9923H74.7002L77.1585 1.82265H79.6834L77.4837 10.6831C77.3891 11.0693 77.1737 11.4034 76.8777 11.623ZM87.8691 0.616333C87.9575 0.796241 88.0109 0.995457 88.0257 1.20063L88.8791 11.9923H88.0257C87.5533 12.0011 87.0957 11.8056 86.746 11.4458C86.5702 11.2735 86.4261 11.0636 86.3222 10.8282C86.2182 10.5927 86.1563 10.3363 86.1401 10.0737L85.4553 1.84095C85.4183 1.42626 85.2163 1.21435 84.8493 1.2052H76.9453C76.8524 1.20865 76.76 1.18881 76.6746 1.14711C76.5892 1.1054 76.513 1.04285 76.4515 0.963937C76.3889 0.885679 76.3432 0.792143 76.3178 0.690604C76.2924 0.589065 76.288 0.482261 76.305 0.378499L76.3505 0.0103141H86.4501C86.7675 -0.00515182 87.0844 0.0512139 87.3823 0.176112C87.579 0.266033 87.7482 0.419039 87.8691 0.616333Z" fill="#525671"/>
<path d="M97.39 0.241286L97.1537 2.224H97.5355L97.4688 2.79572C97.4558 2.91834 97.4038 3.03139 97.3223 3.11359C97.243 3.19673 97.1385 3.24217 97.0305 3.24051L96.9628 3.83738C96.9166 4.22464 96.7505 4.58077 96.4942 4.84246C96.2525 5.10494 95.9302 5.25089 95.5953 5.24952H92.9795L92.7098 6.07622H92.8785L92.3402 10.5756C92.3307 10.6338 92.3328 10.6936 92.3462 10.7508C92.3597 10.8079 92.3842 10.861 92.418 10.9061C92.4504 10.9513 92.4915 10.9874 92.5383 11.0116C92.5851 11.0359 92.6362 11.0475 92.6876 11.0456H93.4289C93.5384 11.0433 93.643 10.9933 93.7208 10.9061C93.8099 10.8221 93.8696 10.7049 93.8895 10.5756L94.3046 7.03099H93.0603L93.1724 6.07851H96.7537L96.2114 10.4487C96.1644 10.8765 95.9804 11.2699 95.6943 11.5544C95.4236 11.8413 95.0663 12.0004 94.6954 11.9992H91.1818C91.0137 12.006 90.8465 11.9695 90.6927 11.8924C90.5389 11.8154 90.4026 11.6998 90.294 11.5544C90.182 11.4028 90.1009 11.2252 90.0563 11.0341C90.0118 10.843 90.005 10.6431 90.0365 10.4487L90.3728 7.66102H89.8789L90.6758 5.24609H90.294L90.3728 4.56003C90.3864 4.46977 90.4258 4.38705 90.4849 4.32448C90.5425 4.26223 90.6194 4.22813 90.699 4.22958H91.0242L91.3161 3.23822H90.3839L90.4516 2.67909C90.4625 2.5522 90.5147 2.43444 90.598 2.34863C90.677 2.26477 90.7816 2.21886 90.8899 2.22057H91.6524L91.8887 1.2578H90.8899L90.9454 0.74897C90.9626 0.607603 91.0221 0.477205 91.1141 0.379642C91.2039 0.286352 91.3225 0.236676 91.4444 0.241286H97.39ZM94.8075 3.76192L94.8641 3.24165H93.5511L93.2481 4.23301H94.348C94.4613 4.23245 94.57 4.18201 94.651 4.09237C94.7345 4.00527 94.7897 3.88886 94.8075 3.76192ZM94.9873 2.224L95.0994 1.2578H94.145L93.8683 2.224H94.9873ZM103.835 1.44875C103.822 1.55266 103.776 1.64763 103.705 1.71517C103.638 1.78094 103.553 1.81708 103.464 1.81694H101.915L101.656 3.91399H103.442L103.374 4.49829C103.355 4.61834 103.302 4.72803 103.223 4.81044C103.147 4.88844 103.049 4.93133 102.947 4.9305H101.533L101.218 7.613H103.093L103.037 8.09553C103.02 8.24547 102.956 8.3836 102.857 8.48429C102.765 8.57939 102.645 8.63167 102.521 8.63065H101.095L100.758 11.4275C100.74 11.5853 100.675 11.7312 100.572 11.8403C100.474 11.9449 100.343 12.0019 100.208 11.9992H98.4343L98.8383 8.63065H96.9517L97.0083 8.1344C97.0263 7.99082 97.0877 7.85873 97.182 7.7605C97.2748 7.66294 97.3977 7.61041 97.5243 7.61414H98.9615L99.2756 4.93165H97.491L97.5698 4.35993C97.5807 4.23907 97.629 4.12647 97.7061 4.04206C97.744 4.00053 97.7887 3.96792 97.8378 3.94613C97.8869 3.92434 97.9393 3.91381 97.992 3.91514H99.3958L99.6422 1.81808H97.7607L97.8384 1.18233C97.8505 1.07928 97.8945 0.984437 97.9627 0.914768C98.0312 0.84669 98.12 0.81071 98.2111 0.814146H98.3232L98.2879 2.18952e-05H99.7927C99.8834 -0.00075377 99.9733 0.0190872 100.057 0.0583691C100.141 0.0976511 100.217 0.155575 100.281 0.228708C100.42 0.383782 100.502 0.59302 100.511 0.814146H101.207L101.241 0.712381C101.421 0.237475 101.705 2.18952e-05 102.094 2.18952e-05H103.699L103.453 0.814146H103.901L103.835 1.44875Z" fill="#525671"/>
<path d="M107.836 10.4606C107.908 10.4917 107.984 10.5087 108.061 10.5109L117.655 10.8802C117.62 11.1919 117.489 11.4796 117.286 11.6932C117.113 11.8682 116.888 11.9633 116.656 11.9596L107.17 11.604L107.124 11.6806C107.09 11.7465 107.045 11.804 106.991 11.8498C106.937 11.8955 106.876 11.9286 106.81 11.947C106.667 11.982 106.52 11.995 106.373 11.9859H104.901L105.991 3.57139H105.228L105.283 3.07514C105.304 2.95256 105.359 2.84092 105.441 2.75727C105.525 2.67502 105.632 2.62995 105.744 2.63034H108.294L107.441 9.77337C107.425 9.87248 107.437 9.97496 107.475 10.0661C107.508 10.1536 107.558 10.2316 107.621 10.2948C107.683 10.3649 107.756 10.4211 107.836 10.4606ZM106.927 1.93171C106.605 1.78634 106.347 1.50273 106.209 1.14274C106.074 0.782941 106.066 0.378127 106.187 0.0118828L108.331 0.965506L107.86 2.35135L106.927 1.93171ZM109.149 5.52895H108.577L108.622 5.1722C108.636 5.04204 108.692 4.92229 108.779 4.83565C108.866 4.74902 108.978 4.70155 109.094 4.70224H110.205L110.25 4.34664H112.031C112.07 4.34564 112.109 4.35422 112.145 4.37178C112.18 4.38935 112.213 4.41548 112.239 4.4484C112.266 4.48192 112.286 4.52253 112.297 4.56674C112.308 4.61095 112.309 4.65745 112.3 4.70224H113.895L113.85 5.05785C113.83 5.18768 113.773 5.30642 113.687 5.39516C113.603 5.48324 113.492 5.53117 113.378 5.52895H110.92L110.83 5.93487H113.704L113.3 9.1765C113.264 9.4634 113.136 9.72549 112.942 9.91401C112.762 10.115 112.521 10.2289 112.268 10.2319H110.46L110.505 9.91401C110.519 9.78385 110.575 9.66411 110.662 9.57733C110.749 9.49056 110.86 9.44275 110.976 9.44292C111.046 9.44235 111.113 9.41581 111.167 9.36745C111.223 9.31511 111.262 9.2437 111.279 9.16392L111.56 6.85075H110.617L110.291 8.27433C110.161 8.83682 109.871 9.33501 109.465 9.69104C109.068 10.0473 108.575 10.2383 108.068 10.2319L109.149 5.52895ZM109.689 4.04248C109.572 4.04713 109.456 4.02211 109.349 3.96927C109.243 3.91643 109.148 3.83712 109.072 3.73719C108.997 3.63322 108.944 3.5124 108.915 3.38296C108.886 3.25352 108.882 3.1185 108.903 2.9871L109.217 0.394933H110.676L110.516 1.72818H112.693L112.772 1.09243H110.788L110.889 0.354913C110.903 0.261339 110.945 0.175985 111.008 0.113648C111.071 0.0497403 111.153 0.0154088 111.238 0.0176H112.877L112.82 0.399507H114.404L114.078 2.99167C114.048 3.28163 113.924 3.54875 113.73 3.74176C113.546 3.94062 113.3 4.05015 113.046 4.04706L109.689 4.04248ZM110.373 2.91163C110.369 2.95013 110.371 2.98928 110.381 3.02653C110.391 3.06377 110.408 3.09826 110.43 3.12774C110.45 3.15591 110.476 3.17849 110.505 3.19375C110.534 3.20901 110.566 3.21655 110.598 3.21578H112.259C112.332 3.21217 112.401 3.1797 112.454 3.12408C112.508 3.06845 112.542 2.99323 112.552 2.91163L112.619 2.41538H110.43L110.373 2.91163ZM117.2 1.93285C117.224 1.87209 117.264 1.82062 117.314 1.78455C117.364 1.74847 117.421 1.72931 117.48 1.72932H118.894L116.952 6.22873L117.839 10.2307H116.75C116.583 10.2328 116.421 10.1698 116.29 10.0524C116.156 9.93433 116.061 9.76884 116.02 9.58242L115.841 8.80374L115.515 9.45206C115.23 9.9689 114.849 10.2273 114.37 10.2273H113.248L115.223 6.07093L114.381 2.35935H115.605C115.752 2.35797 115.895 2.41412 116.009 2.51829C116.127 2.62088 116.211 2.76672 116.245 2.93107L116.425 3.74405L117.2 1.93285ZM116.807 0.342335H119.085L119.03 0.761975C119.01 0.916647 118.942 1.05836 118.839 1.16218C118.741 1.265 118.613 1.32184 118.479 1.32111H116.515C116.32 1.84709 116.006 2.1097 115.572 2.10894H114.381L114.942 0.151382C114.952 0.109954 114.975 0.0735996 115.005 0.0482611C115.036 0.0229226 115.073 0.0100978 115.111 0.0118828H116.896L116.807 0.342335Z" fill="#525671"/>
<path d="M120.202 2.75528H123.615L122.627 10.4586C122.627 10.4929 122.63 10.5271 122.638 10.5604C122.644 10.5841 122.656 10.6057 122.671 10.6232C122.69 10.6444 122.714 10.6593 122.74 10.6662C122.765 10.673 122.792 10.6716 122.818 10.6621L123.233 10.6358C123.282 10.6319 123.332 10.64 123.379 10.6598C123.425 10.6795 123.467 10.7103 123.502 10.7502C123.533 10.7902 123.555 10.8369 123.569 10.8873C123.582 10.9376 123.586 10.9906 123.581 11.0429L123.48 11.8307L121.134 11.9839C121.011 11.9985 120.886 11.9833 120.768 11.9394C120.65 11.8954 120.541 11.8237 120.449 11.7289C120.365 11.6343 120.302 11.5177 120.267 11.3893C120.232 11.2609 120.225 11.1247 120.247 10.9926L121.134 4.28062H120.539C120.472 4.28237 120.405 4.26597 120.345 4.23277C120.284 4.19956 120.231 4.15051 120.191 4.08967C120.15 4.02898 120.119 3.95962 120.102 3.88561C120.085 3.81161 120.081 3.73444 120.09 3.65859L120.202 2.75528ZM122.919 0.0110406C123.024 0.00712055 123.13 0.0276057 123.228 0.0712473C123.327 0.114889 123.416 0.180773 123.491 0.264883C123.562 0.344947 123.617 0.440376 123.653 0.545352C123.69 0.650328 123.707 0.762652 123.704 0.875476V2.14583H121.987C121.889 2.14914 121.791 2.11758 121.709 2.0555C121.677 2.01918 121.647 1.98101 121.619 1.94116C121.595 1.89996 121.583 1.85101 121.586 1.80166V0.00989721L122.919 0.0110406ZM127.207 6.17186L127.319 5.23081H133.379L132.717 10.4323C132.667 10.861 132.475 11.252 132.179 11.5254C132.036 11.6652 131.872 11.7769 131.696 11.8559C131.522 11.9401 131.335 11.9836 131.146 11.9839H129.092L129.114 11.7804C129.138 11.5706 129.232 11.3793 129.377 11.2464C129.521 11.1113 129.703 11.0391 129.889 11.0429C129.993 11.0399 130.093 10.9949 130.17 10.916C130.238 10.8461 130.282 10.7513 130.293 10.6484L130.383 9.88573H126.465L126.274 11.3482C126.255 11.5266 126.177 11.6902 126.056 11.8055C125.932 11.9243 125.774 11.9878 125.612 11.9839H123.804L124.669 5.23767H127.062L126.937 6.17186L126.915 6.40054L126.825 7.09918H130.744L130.867 6.17186H127.207ZM130.407 3.83239H133.921L133.854 4.36638C133.833 4.49862 133.771 4.6182 133.68 4.70369C133.587 4.79137 133.469 4.83844 133.349 4.83633H124.367L124.434 4.31606C124.445 4.17954 124.504 4.05376 124.597 3.96617C124.689 3.87716 124.807 3.82956 124.928 3.83239H128.004L128.094 3.12118H124.782L124.839 2.65008C124.857 2.49689 124.925 2.35688 125.029 2.25674C125.132 2.15554 125.263 2.10094 125.399 2.10352H128.227L128.294 1.53181H124.84L124.895 1.15104C124.914 0.973968 124.992 0.811976 125.114 0.699387C125.236 0.585762 125.389 0.524942 125.547 0.527872H128.432V0.518725C128.45 0.375511 128.513 0.244576 128.61 0.150776C128.707 0.0569775 128.832 0.00684522 128.959 0.00989721H130.89L130.823 0.531303H134.27L134.224 0.912066C134.196 1.08641 134.115 1.24393 133.994 1.35686C133.874 1.47433 133.72 1.53781 133.562 1.53524H130.697L130.619 2.10695H133.942L133.875 2.57805C133.855 2.73067 133.788 2.87018 133.685 2.97069C133.581 3.0712 133.449 3.12589 133.313 3.12461H130.495L130.407 3.83239ZM130.519 8.87836L130.62 8.10311H126.691L126.601 8.87836H130.519Z" fill="#525671"/>
</svg>
