<svg width="36" height="36" viewBox="0 0 36 36" fill="none" xmlns="http://www.w3.org/2000/svg">
<path d="M8.70163 8.27405C7.93713 6.98523 8.36316 5.32234 9.6532 4.5599L10.1617 4.25939L10.6701 3.95888C11.9601 3.19643 13.6257 3.62314 14.3902 4.91197C15.1547 6.20079 14.7286 7.86367 13.4386 8.62612L12.4217 9.22714C11.1317 9.98958 9.46613 9.56287 8.70163 8.27405Z" fill="#3A3A3A"/>
<path d="M8.20523 21.3034C4.6966 16.8183 5.77672 10.2991 10.544 7.18712L11.8972 6.3038C16.3045 3.42686 22.2446 5.1199 24.4718 9.88774C26.2421 12.7508 28.5953 15.2107 31.3785 17.1078L32.8149 18.0868L10.6029 30.4748C10.3868 27.2987 9.5704 24.181 8.20523 21.3034Z" fill="#6A6A6A"/>
<path d="M32.8111 18.089L31.3738 17.1046C28.5776 15.1893 26.2129 12.7117 24.4315 9.83073C22.447 5.82206 17.761 3.94397 13.5547 5.47138L12.8507 5.72699C17.4799 9.09403 19.3583 15.0885 17.4755 20.4859L15.0768 27.3622L32.8111 18.089Z" fill="#595959"/>
<ellipse rx="12.8187" ry="5.81774" transform="matrix(0.878535 -0.477679 0.479017 0.877806 21.9518 24.7698)" fill="#3A3A3A"/>
<path opacity="0.1" fill-rule="evenodd" clip-rule="evenodd" d="M30.7449 25.2666C29.2511 26.9239 27.1911 28.5418 24.7385 29.8753C22.767 30.9473 20.7784 31.7069 18.9287 32.1474C19.1754 30.6365 21.2081 28.5328 24.1057 26.9573C26.6723 25.5618 29.2197 24.9601 30.7449 25.2666Z" fill="white"/>
<path d="M11.5887 5.45877C11.7407 5.69967 11.2156 5.9075 10.5894 6.30119C9.96324 6.69488 9.47316 7.12535 9.32114 6.88444C9.16913 6.64354 9.55351 6.12909 10.1797 5.7354C10.8059 5.34172 11.4367 5.21786 11.5887 5.45877Z" fill="white" fill-opacity="0.4"/>
</svg>
